PathFileType	3	(X/Y/Z)	D:\minhoCalibration\240510\subject1_KPNP\preferred\preferred11.trc
DataRate	CameraRate	NumFrames	NumMarkers	Units	OrigDataRate	OrigDataStartFrame	OrigNumFrames
200.0	200.0	36	10	mm	200.0	408	246	
Frame#	Time	Left_Ankle_Outer1			Left_Ankle_Inner1			Left_Knee_Outer1			Left_Knee_Inner1			Left_Wrist1			Right_Wrist1			Right_Knee_Inner1			Right_Knee_Outer1			Right_Ankle_Inner1			Right_Ankle_Outer1			
		X1	Y1	Z1	X2	Y2	Z2	X3	Y3	Z3	X4	Y4	Z4	X5	Y5	Z5	X6	Y6	Z6	X7	Y7	Z7	X8	Y8	Z8	X9	Y9	Z9	X10	Y10	Z10	
408	2.03	-453.50314	126.63741	-558.40436	-506.58762	131.25122	-546.98792	-421.02249	550.29358	-383.9212	-527.4649	520.03827	-409.88797	-405.92673	983.53864	-550.0274	-709.02637	987.57556	-732.53363	-829.15363	544.34247	-611.20654	-885.26331	589.70331	-707.73175	-694.77911	274.73132	-954.56689	-782.47375	275.87833	-1014.2338
409	2.035	-451.72467	126.55759	-558.76166	-504.93848	131.43111	-547.4364	-417.08444	550.95526	-386.92572	-523.22095	520.89703	-411.86572	-400.93762	987.10712	-549.4231	-710.09326	992.05487	-722.22296	-829.34863	550.93762	-592.50574	-888.30762	595.42114	-688.67505	-694.39105	290.69504	-943.47034	-784.22717	287.06012	-1000.6144
410	2.04	-450.0415	126.40919	-559.07947	-503.21866	131.81241	-547.92688	-412.84106	551.77039	-390.24448	-519.21381	522.07275	-414.30328	-395.51987	990.53271	-550.27472	-711.41107	996.78442	-710.8183	-828.2984	556.78027	-573.97974	-890.63525	601.14508	-668.98639	-693.50262	307.57062	-931.10919	-784.63495	299.37888	-987.1181
411	2.045	-448.58191	126.39072	-559.54889	-501.24597	131.731	-547.95728	-408.27133	552.7002	-393.90833	-514.57672	523.16431	-418.23972	-389.84811	993.66791	-552.70825	-712.94751	1001.3584	-698.55884	-826.47742	562.56622	-554.74762	-892.12189	606.86884	-648.67566	-692.20447	324.74753	-918.68713	-783.70435	313.21677	-973.4873
412	2.05	-447.20483	126.54228	-559.99268	-500.216	132.70827	-548.41675	-403.26193	553.79785	-397.92511	-510.37842	524.36334	-421.4342	-383.69049	996.42816	-556.09387	-714.18573	1006.8402	-685.68781	-823.90839	568.25336	-534.69934	-893.10474	612.59589	-627.11676	-690.46118	342.29492	-904.823	-782.07458	328.59094	-959.39233
413	2.055	-446.09027	126.83765	-560.4165	-498.991	133.46014	-548.45905	-398.06702	555.07043	-402.34201	-505.80853	525.97144	-424.34201	-377.59454	998.94452	-560.52277	-715.20874	1011.9062	-672.08997	-819.99243	573.70361	-514.76941	-892.92517	618.41516	-603.2489	-688.93152	359.71118	-890.534	-779.97937	345.49927	-944.96295
414	2.06	-445.21082	127.39256	-560.8114	-498.01791	134.48131	-548.25739	-392.92682	556.32617	-407.41809	-500.78952	527.78314	-426.97226	-371.59497	1001.4081	-565.72784	-715.1825	1017.4996	-658.51233	-815.36017	579.42188	-494.2261	-892.25342	624.80969	-580.22461	-687.25525	378.00299	-875.36072	-778.6084	363.62753	-930.17596
415	2.065	-444.65762	128.13522	-561.1225	-497.27625	135.78693	-547.9657	-387.29651	557.89313	-412.53552	-495.57318	529.85077	-429.42618	-365.37747	1003.9383	-571.83978	-714.86493	1023.0544	-644.74518	-809.66888	585.70496	-473.35751	-890.64453	631.65527	-556.05176	-685.32697	397.0434	-859.43439	-776.40436	382.29898	-914.17737
416	2.07	-444.50995	129.06601	-561.31104	-496.7829	137.36742	-547.25775	-381.36917	559.63293	-417.96832	-490.23712	531.99677	-431.5668	-360.0419	1006.4122	-578.35474	-713.51874	1028.8375	-631.29462	-802.34155	592.7431	-451.27777	-887.90399	639.09027	-530.76691	-684.53363	415.86359	-843.18304	-777.11279	402.06461	-896.70422
417	2.075	-444.40823	130.46306	-561.39758	-496.2179	138.89468	-545.73981	-375.44171	561.58051	-423.57407	-484.91782	534.47839	-433.33871	-355.37213	1009.0583	-585.29565	-711.99976	1034.8885	-617.61676	-793.63397	600.63971	-429.40863	-884.1947	647.41913	-504.69022	-684.03308	435.39026	-826.41541	-777.72339	422.69724	-878.48193
418	2.08	-444.48611	132.06747	-561.4726	-496.03021	141.0265	-544.26361	-369.1366	563.65289	-429.65985	-478.94745	537.14569	-434.80057	-351.58868	1012.043	-592.41034	-709.61896	1041.0311	-604.62347	-783.42999	609.48608	-407.13892	-878.90607	656.33044	-477.85535	-684.27203	455.37347	-809.41199	-779.33704	443.5657	-859.28345
419	2.085	-444.60541	134.10423	-561.34998	-495.88586	143.57669	-542.59711	-363.32825	565.8595	-435.56335	-474.0509	540.89056	-433.66959	-348.10141	1015.2565	-600.14697	-706.65564	1047.2672	-592.0191	-772.00952	619.21625	-385.31464	-871.97046	665.9129	-450.7244	-685.41571	476.0817	-792.27466	-781.70007	464.25525	-840.3299
420	2.09	-444.77283	136.31079	-561.13525	-495.8602	146.45352	-540.36511	-357.72894	568.32916	-441.43512	-467.88623	543.48895	-435.31592	-345.62872	1018.4505	-608.10651	-703.00555	1053.5294	-580.34973	-759.07953	629.51312	-363.60419	-863.57855	676.24487	-423.23038	-687.3075	497.26941	-774.87366	-784.75745	485.78757	-819.60742
421	2.095	-445.09467	138.67154	-560.78772	-495.73788	149.49393	-538.30042	-352.16858	570.88287	-447.38681	-461.69781	546.55627	-436.22131	-343.45908	1021.5348	-616.25769	-698.90375	1060.345	-568.88812	-745.52179	641.18835	-340.65564	-853.41833	687.10266	-395.62378	-690.21161	519.10699	-757.03198	-788.93024	508.06033	-798.09332
422	2.1	-445.54193	141.12514	-560.34033	-495.65012	152.55199	-536.13184	-346.81393	573.46497	-453.21527	-455.83551	550.16705	-436.47134	-341.65585	1024.5352	-624.64771	-694.30701	1067.4397	-558.21185	-730.50275	653.31598	-319.12131	-841.84955	698.88879	-368.01474	-693.84064	541.48547	-738.73767	-792.18134	528.97223	-777.46454
423	2.105	-446.06561	143.65984	-559.92267	-495.56479	155.66583	-533.98651	-341.59851	576.02576	-459.01605	-448.6825	552.9845	-438.15302	-340.39789	1027.3928	-633.29974	-689.04401	1073.9318	-548.56171	-714.44073	666.19171	-297.86255	-828.79681	711.6792	-340.64828	-696.62415	564.29468	-720.31824	-798.56396	551.82751	-752.09326
424	2.11	-446.83139	146.1954	-559.47058	-495.69653	158.62447	-531.90265	-336.70227	578.46399	-464.65872	-442.49271	555.97241	-438.58215	-339.81851	1029.9153	-641.93524	-683.24408	1081.3756	-539.24829	-697.76105	680.49152	-276.52594	-814.16522	725.3689	-313.74976	-701.6087	586.83734	-700.57959	-804.50037	574.22565	-727.3338
425	2.115	-447.95377	148.6188	-559.06396	-495.98175	161.6673	-529.85272	-332.10614	580.62341	-470.19836	-436.77277	558.12549	-439.07059	-339.71259	1032.1594	-650.80804	-678.14905	1088.3956	-530.39807	-679.73199	695.24078	-255.48628	-797.89056	740.12714	-287.36139	-707.13855	608.94177	-679.79913	-812.25488	597.19592	-699.65643
426	2.12	-449.39236	150.9912	-558.84174	-495.75485	164.05385	-526.49658	-327.81851	582.6004	-475.5657	-431.38147	561.50287	-437.86862	-340.13794	1034.1313	-659.55182	-672.16461	1094.7595	-522.88208	-660.68219	710.22284	-236.66165	-780.50238	755.77441	-261.79361	-712.48676	630.64496	-658.48322	-815.46222	618.66071	-677.15582
427	2.125	-451.15628	153.2252	-558.72473	-496.26141	166.73775	-524.31274	-324.05054	584.20056	-480.68329	-425.57272	563.74109	-438.08624	-340.80353	1035.7062	-668.57654	-665.86401	1101.0852	-515.86389	-640.57477	726.14093	-218.43335	-761.60175	772.52655	-236.9747	-717.92645	651.86737	-635.90399	-823.87311	642.27264	-647.74603
428	2.13	-453.33279	155.2088	-558.44635	-496.90472	169.01596	-522.36945	-320.681	585.50946	-485.63846	-418.7869	566.27515	-438.24698	-342.20618	1037.1278	-677.27679	-660.4212	1107.478	-508.16525	-619.75934	742.12268	-200.89174	-741.23248	790.36969	-213.41049	-724.01105	672.24084	-612.63129	-829.62592	663.80243	-621.02014
429	2.135	-455.96936	156.73596	-557.82446	-497.82275	171.22322	-520.52777	-318.17209	586.35046	-490.25851	-413.88815	567.75903	-438.19565	-344.82944	1037.8341	-685.22974	-653.61121	1113.4281	-502.07458	-597.75836	758.19867	-184.96863	-719.0047	809.55267	-190.84668	-730.52972	692.01794	-588.42035	-836.29376	687.12756	-589.75519
430	2.14	-458.44305	158.36931	-557.80573	-499.23938	172.62337	-518.31451	-316.27539	586.8562	-494.58606	-409.84854	568.42212	-438.63135	-347.71863	1038.4338	-693.31482	-647.22107	1119.4927	-495.61246	-575.02478	774.47925	-170.81126	-695.29443	829.25647	-169.78603	-737.28046	711.13989	-563.47797	-842.53668	711.6297	-555.15289
431	2.145	-461.22107	159.33647	-557.13373	-500.90302	173.80762	-515.79156	-314.90472	586.88965	-498.80359	-405.61362	569.33386	-438.12302	-350.91931	1038.7031	-701.27045	-641.05701	1125.2821	-489.26062	-551.70709	790.78442	-158.78658	-669.48425	849.7804	-150.32726	-743.99152	729.40546	-537.43561	-847.93634	734.01886	-521.33899
432	2.15	-464.43845	159.59065	-555.80035	-502.61481	174.41382	-513.62115	-314.20532	586.70062	-502.72357	-402.77875	569.30109	-440.06924	-355.44946	1038.4343	-708.15845	-634.2561	1130.433	-484.05731	-528.28668	807.03308	-149.08401	-642.38672	870.95416	-133.09244	-750.52948	746.41821	-509.80289	-852.93402	755.58191	-486.00214
433	2.155	-467.22549	159.90697	-555.08875	-504.37195	174.58255	-511.50464	-314.48218	585.94885	-506.284	-400.34921	569.55005	-440.34497	-360.87045	1037.6364	-714.30322	-627.60889	1136.2881	-478.76303	-504.59039	822.81079	-140.72629	-613.9129	891.90985	-118.47554	-757.24194	762.72229	-481.13358	-856.99683	775.48224	-450.52463
434	2.16	-470.58194	159.79274	-553.50055	-506.60175	174.71062	-508.97406	-315.14255	584.94659	-509.70215	-398.729	568.88989	-440.87296	-366.29016	1036.6628	-720.01013	-620.89587	1141.5226	-474.10056	-481.03027	838.21802	-134.21889	-584.71472	912.78296	-106.44074	-764.22882	777.83917	-450.03934	-860.49316	796.30981	-410.79889
435	2.165	-473.95285	159.53693	-552.15765	-509.06259	174.24744	-506.57843	-316.5466	583.66675	-512.5	-398.16898	567.4632	-442.00693	-372.10712	1035.1844	-724.99023	-615.41229	1147.298	-468.59418	-458.01709	853.01556	-129.34135	-555.59576	933.75531	-96.764351	-771.03235	792.0061	-417.21619	-862.67816	815.89374	-370.52835
436	2.17	-477.76398	159.20581	-550.51202	-511.84164	173.98041	-504.26483	-318.48312	582.21814	-514.56177	-398.5162	566.53821	-441.99402	-378.22391	1033.3129	-729.18103	-608.30402	1152.3381	-463.52139	-435.69675	867.21863	-125.82976	-525.39398	953.55182	-90.325768	-777.24829	805.2558	-382.29202	-863.05145	835.14319	-328.49265
437	2.175	-482.05673	158.60559	-548.5946	-515.25922	173.71243	-502.11148	-320.81616	580.75647	-515.90839	-399.39282	565.81104	-441.71249	-384.42477	1031.0311	-732.53723	-601.83466	1157.5875	-459.92993	-414.22021	880.98938	-123.76273	-495.92007	972.40674	-86.411705	-782.31812	817.74274	-345.05511	-861.40631	853.98401	-284.45767
438	2.18	-486.10233	158.34108	-547.33655	-518.76703	173.02599	-499.96844	-322.99609	579.35541	-516.79523	-401.27774	565.34137	-440.21881	-390.76602	1028.4136	-735.15479	-595.41724	1163.22	-456.30219	-394.30902	894.07635	-122.29344	-467.17743	989.91345	-85.302544	-785.66809	829.64441	-305.11426	-857.3092	872.53815	-238.40967
439	2.185	-490.60464	157.99254	-545.66632	-522.85608	172.65669	-498.08118	-325.47186	578.33447	-516.48199	-402.99161	564.48083	-440.25745	-397.20859	1025.3027	-736.98273	-589.19348	1168.7471	-453.43155	-374.44952	906.94342	-122.32606	-439.80167	1006.4806	-86.275162	-786.69879	841.16284	-262.0885	-850.00073	890.8512	-190.2
440	2.19	-495.25769	157.6062	-543.97504	-526.79083	171.9314	-496.00644	-328.81519	576.94556	-514.92407	-405.57922	564.63776	-437.9043	-403.3512	1021.9638	-738.58844	-582.83356	1174.058	-450.82339	-356.63412	918.99591	-122.66221	-414.13327	1021.5651	-89.315842	-784.79425	852.5191	-215.73344	-839.18524	909.07178	-140.43054
441	2.195	-499.87823	157.11697	-542.18878	-530.93481	171.30655	-494.03195	-331.76859	576.27258	-512.74237	-408.31848	564.17371	-436.42725	-409.42078	1018.3532	-739.25574	-577.65948	1179.2119	-449.21127	-340.06055	930.61475	-123.68542	-390.34741	1035.0692	-94.344971	-779.32648	863.94611	-166.0755	-823.37378	926.64832	-91.90992
442	2.2	-504.44025	156.71558	-540.16656	-535.10571	170.55876	-491.93185	-333.97336	575.67926	-510.93228	-411.08945	563.53564	-433.41867	-415.11017	1014.8582	-739.35431	-572.31531	1184.0033	-447.74582	-324.91974	941.67041	-125.29362	-369.89261	1047.2349	-99.938843	-769.68439	875.63245	-113.49532	-804.23724	944.90369	-40.216087
443	2.205	-508.50476	156.17632	-538.31354	-538.95447	169.79887	-489.85654	-336.75275	575.01044	-507.96051	-414.90253	562.98676	-431.18304	-420.62494	1011.2854	-738.5343	-567.39758	1188.3014	-447.10959	-311.41678	951.90912	-127.34036	-351.98511	1057.8107	-106.55993	-755.28674	887.91046	-58.922993	-780.68774	963.34869	11.580991
